<?xml version="1.0" encoding="utf-8"?><!-- Generator: Adobe Illustrator 15.0.0, SVG Export Plug-In . SVG Version: 6.00 Build 0)  --><!DOCTYPE svg PUBLIC "-//W3C//DTD SVG 1.1//EN" "http://www.w3.org/Graphics/SVG/1.1/DTD/svg11.dtd"><svg xmlns="http://www.w3.org/2000/svg" xmlns:xlink="http://www.w3.org/1999/xlink" version="1.1" id="Слой_1" x="0px" y="0px" width="64" height="64" viewBox="0 0 48 48" enable-background="new 0 0 48 48" xml:space="preserve" style="fill: rgb(102, 102, 102);">
<path fill="#FFCC80" d="M6,18v19c0,2.762,2.239,5,5,5h26c2.762,0,5-2.238,5-5V18H6z"/>
<path fill="#795548" d="M42,18v-7c0-2.762-2.238-5-5-5H11c-2.761,0-5,2.238-5,5v7H42z"/>
<circle fill="#37474F" cx="24" cy="25" r="8"/>
<path fill="#FFF3E0" d="M24,34c-4.962,0-9-4.037-9-9c0-4.962,4.038-9,9-9c4.963,0,9,4.038,9,9C33,29.963,28.963,34,24,34z M24,18  c-3.86,0-7,3.14-7,7c0,3.859,3.14,7,7,7c3.859,0,7-3.141,7-7C31,21.14,27.859,18,24,18z"/>
<circle fill="#546E7A" cx="24" cy="25" r="5"/>
<circle fill="#BBDEFB" cx="22" cy="23" r="2"/>
<path fill="#F44336" d="M8,7.022V18h2V6.101C9.256,6.252,8.584,6.581,8,7.022z"/>
<path fill="#FFEB3B" d="M11,6c-0.343,0-0.677,0.035-1,0.101V18h2V6H11z"/>
<rect x="12" y="6" fill="#8BC34A" width="2" height="12"/>
<rect x="14" y="6" fill="#2196F3" width="2" height="12"/>
<g>
	<rect x="32" y="9" fill="#3E2723" width="6" height="6"/>
	<path fill="#3E2723" d="M16,17.5c0,0.828-0.671,1.5-1.5,1.5h-5C8.671,19,8,18.328,8,17.5l0,0C8,16.672,8.671,16,9.5,16h5   C15.329,16,16,16.672,16,17.5L16,17.5z"/>
</g>
</svg>