<?xml version="1.0" encoding="utf-8"?><!-- Generator: Adobe Illustrator 15.0.0, SVG Export Plug-In . SVG Version: 6.00 Build 0)  --><!DOCTYPE svg PUBLIC "-//W3C//DTD SVG 1.1//EN" "http://www.w3.org/Graphics/SVG/1.1/DTD/svg11.dtd"><svg xmlns="http://www.w3.org/2000/svg" xmlns:xlink="http://www.w3.org/1999/xlink" version="1.1" id="Слой_1" x="0px" y="0px" width="64" height="64" viewBox="0 0 48 48" enable-background="new 0 0 48 48" xml:space="preserve" style="fill: rgb(102, 102, 102);">
<circle fill="#D32F2F" cx="24" cy="24.001" r="19"/>
<path fill="#FFFFFF" d="M17.053,41.672c-0.031-0.65-0.027-4.011,2.313-14.049c0.313-3.348-0.122-4.537-0.122-5.929  c0-3.157,1.64-3.821,2.598-3.821c1.366,0,3.252,0.522,3.252,2.723c0,2.521-2.056,3.184-2.056,3.184s-0.148,0.645-0.318,2.436  c-0.171,1.795,0.546,3.736,3.473,3.736c4.695,0,5.418-6.514,5.418-8.306c0-2.477-1.814-7.505-7.45-7.505  c-7.515,0-8.808,6.734-8.808,8.529c0,0.768,0.212,2.123,0.357,2.703c1.419,0.229,1.272,2.172,0.666,2.725  c-0.675,0.605-4.142,1.328-4.142-6.281c0-7.246,6.459-10.982,12.128-10.982c5.396,0,11.275,3.725,11.275,10.898  c0,6.402-4.604,11.443-9.439,11.443c-2.902,0-4.441-2.392-4.441-2.392c0,2.239-4.113,9.934-4.639,10.912"/>
</svg>