<?xml version="1.0" encoding="utf-8"?><!-- Generator: Adobe Illustrator 19.1.1, SVG Export Plug-In . SVG Version: 6.00 Build 0)  --><svg xmlns="http://www.w3.org/2000/svg" xmlns:xlink="http://www.w3.org/1999/xlink" version="1.1" id="Layer_1" x="0px" y="0px" viewBox="0 0 48 48" enable-background="new 0 0 48 48" xml:space="preserve" width="64" height="64" style="fill: rgb(102, 102, 102);">
<path fill="#D7CCC8" d="M25,5h-2C13.6,5,5,11,5,21c0,7,3,9,3,9c0.3,0.3,0.6,0.6,1,0.9V33c0,4,6,5,6,5v5c0,0.6,0.4,1,1,1h16  c0.6,0,1-0.4,1-1v-5c0,0,6-1,6-5v-2.1c0.4-0.3,0.7-0.6,1-0.9c0,0,3-3,3-9C43,11,34.4,5,25,5z"/>
<path fill="#795548" d="M27.5,37.9c0,0.9-0.6,1.4-1.4,1.4c-1.1,0-1.9-1.9-2.1-2.7c0,1-0.8,2.7-2.1,2.7c-0.8,0-1.4-0.5-1.4-1.4  c0-1.9,2.2-5.6,3.5-5.9C25.3,32.5,27.5,36,27.5,37.9z M28.3,23.7c-2.2,0.6-3,3.5-2.4,5.6c1,3,3.7,4.3,6.8,3.3c1.4-0.5,2.7-2.2,1.4-6  C33.4,24,30.8,22.9,28.3,23.7L28.3,23.7z M19.7,23.7c-2.7-1-5.1,0.3-5.9,2.9c-1.3,3.8,0.2,5.6,1.4,6c3.2,0.9,5.9-0.3,6.8-3.3  C22.7,27.4,21.9,24.5,19.7,23.7L19.7,23.7z"/>
</svg>