<?xml version="1.0" encoding="utf-8"?><!-- Generator: Adobe Illustrator 15.0.0, SVG Export Plug-In . SVG Version: 6.00 Build 0)  --><!DOCTYPE svg PUBLIC "-//W3C//DTD SVG 1.1//EN" "http://www.w3.org/Graphics/SVG/1.1/DTD/svg11.dtd"><svg xmlns="http://www.w3.org/2000/svg" xmlns:xlink="http://www.w3.org/1999/xlink" version="1.1" id="Слой_1" x="0px" y="0px" width="64" height="64" viewBox="0 0 48 48" enable-background="new 0 0 48 48" xml:space="preserve" style="fill: rgb(102, 102, 102);">
<path fill="#01579B" d="M42,37c0,2.762-2.238,5-5,5H11c-2.761,0-5-2.238-5-5V11c0-2.762,2.239-5,5-5h26c2.762,0,5,2.238,5,5V37z"/>
<path fill="#FFFFFF" d="M32,34.891c0,0.095-0.037,0.184-0.109,0.247C31.803,35.215,29.723,37,24.947,37  c-5.726,0-5.893-6.409-5.893-7.141L19,22h-2.672C16.146,22,16,21.853,16,21.671V18.57c0-0.135,0.083-0.259,0.208-0.309  c0.052-0.02,5.171-2.083,5.171-6.933c0-0.183,0.146-0.329,0.327-0.329h2.966C24.854,11,25,11.146,25,11.329V18h5.67  c0.182,0,0.33,0.146,0.33,0.328v3.345C31,21.856,30.852,22,30.67,22H25v7.711c0,0.101,0.316,2.519,2.76,2.519  c2.023,0,3.721-1.044,3.74-1.055c0.1-0.064,0.227-0.066,0.333-0.009C31.936,31.223,32,31.334,32,31.455V34.891L32,34.891z"/>
</svg>